HIERARCHY
ROOT Hips
{
	OFFSET 53.144600 2.623441 56.095100
	CHANNELS 6 Xposition Yposition Zposition Xrotation Yrotation Zrotation
	JOINT spine
	{
		OFFSET 0.000000 -0.458068 7.965683
		CHANNELS 3 Xrotation Yrotation Zrotation
		JOINT spine1
		{
			OFFSET 0.000000 -0.000002 10.243103
			CHANNELS 3 Xrotation Yrotation Zrotation
			JOINT spine2
			{
				OFFSET 0.000000 -0.000001 9.814751
				CHANNELS 3 Xrotation Yrotation Zrotation
				JOINT Neck
				{
					OFFSET 0.000000 -1.201384 25.198601
					CHANNELS 3 Xrotation Yrotation Zrotation
					JOINT Head
					{
						OFFSET 0.000000 -0.000001 7.613152
						CHANNELS 3 Xrotation Yrotation Zrotation
						End Site
						{
							OFFSET 0.000000 6.077327 18.428101
						}
					}
				}
				JOINT RightShoulder
				{
					OFFSET -4.132698 0.575449 10.599197
					CHANNELS 3 Xrotation Yrotation Zrotation
					JOINT RightArm
					{
						OFFSET 0.000000 -0.000002 13.901802
						CHANNELS 3 Xrotation Yrotation Zrotation
						JOINT RightArmRoll
						{
							OFFSET 0.000000 -0.000001 7.017891
							CHANNELS 3 Xrotation Yrotation Zrotation
							JOINT RightForeArm
							{
								OFFSET 0.000000 -0.000003 20.440598
								CHANNELS 3 Xrotation Yrotation Zrotation
								JOINT RightForeArmRoll
								{
									OFFSET 0.000000 -0.000001 7.875153
									CHANNELS 3 Xrotation Yrotation Zrotation
									JOINT RightHand
									{
										OFFSET 0.000000 -0.000003 15.803696
										CHANNELS 3 Xrotation Yrotation Zrotation
										End Site
										{
											OFFSET 0.000000 0.000000 0.100006
										}
									}
								}
							}
						}
					}
				}
				JOINT LeftShoulder
				{
					OFFSET 4.132698 0.575449 10.599197
					CHANNELS 3 Xrotation Yrotation Zrotation
					JOINT LeftArm
					{
						OFFSET 0.000000 -0.000002 13.901802
						CHANNELS 3 Xrotation Yrotation Zrotation
						JOINT LeftArmRoll
						{
							OFFSET 0.000000 -0.000001 7.017891
							CHANNELS 3 Xrotation Yrotation Zrotation
							JOINT LeftForeArm
							{
								OFFSET 0.000000 -0.000003 20.440598
								CHANNELS 3 Xrotation Yrotation Zrotation
								JOINT LeftForeArmRoll
								{
									OFFSET 0.000000 -0.000001 7.875153
									CHANNELS 3 Xrotation Yrotation Zrotation
									JOINT LeftHand
									{
										OFFSET 0.000000 -0.000003 15.803696
										CHANNELS 3 Xrotation Yrotation Zrotation
										End Site
										{
											OFFSET 0.000000 0.000000 0.100006
										}
									}
								}
							}
						}
					}
				}
			}
		}
	}
	JOINT RightUpLeg
	{
		OFFSET -7.060478 1.086100 -1.294701
		CHANNELS 3 Xrotation Yrotation Zrotation
		JOINT RightUpLegRoll
		{
			OFFSET 0.000000 -0.000003 18.530800
			CHANNELS 3 Xrotation Yrotation Zrotation
			JOINT RightLeg
			{
				OFFSET 0.000000 0.000004 -22.947601
				CHANNELS 3 Xrotation Yrotation Zrotation
				JOINT RightLegRoll
				{
					OFFSET 0.000000 -0.000004 23.022598
					CHANNELS 3 Xrotation Yrotation Zrotation
					JOINT RightFoot
					{
						OFFSET 0.000000 -0.000003 19.162498
						CHANNELS 3 Xrotation Yrotation Zrotation
						JOINT RightToeBase
						{
							OFFSET 0.000000 -0.000003 16.018799
							CHANNELS 3 Xrotation Yrotation Zrotation
							End Site
							{
								OFFSET 0.006790 0.894205 7.757820
							}
						}
					}
				}
			}
		}
	}
	JOINT LeftUpLeg
	{
		OFFSET 7.060478 1.086100 -1.294701
		CHANNELS 3 Xrotation Yrotation Zrotation
		JOINT LeftUpLegRoll
		{
			OFFSET 0.000000 -0.000003 18.530899
			CHANNELS 3 Xrotation Yrotation Zrotation
			JOINT LeftLeg
			{
				OFFSET 0.000000 -0.000004 22.947502
				CHANNELS 3 Xrotation Yrotation Zrotation
				JOINT LeftLegRoll
				{
					OFFSET 0.000000 -0.000004 23.235497
					CHANNELS 3 Xrotation Yrotation Zrotation
					JOINT LeftFoot
					{
						OFFSET 0.000000 -0.000003 18.949600
						CHANNELS 3 Xrotation Yrotation Zrotation
						JOINT LeftToeBase
						{
							OFFSET 0.000000 -0.000003 16.018799
							CHANNELS 3 Xrotation Yrotation Zrotation
							End Site
							{
								OFFSET -0.030430 0.894206 7.757812
							}
						}
					}
				}
			}
		}
	}
}
MOTION
Frames: 10
Frame Time: 0.041667
52.850899 3.570850 55.164604 -15.851232 -0.734279 -3.008703 5.143536 -0.407943 -0.578758 14.286190 -0.871798 -1.108005 15.931252 -0.885009 -1.097488 7.208115 16.074932 0.126039 11.750507 -11.291903 0.934919 -4.577144 -53.551279 -4.879874 -58.482901 -135.889031 -82.759975 0.000003 0.000004 -0.000001 61.510915 -11.315895 3.086811 -0.000011 -0.000005 -2.999990 -5.000217 -7.999125 0.000112 -6.464863 61.268095 7.823540 -78.834897 109.737296 125.421138 0.000001 -0.000001 0.000000 88.428745 5.214272 4.085146 -0.000003 -0.000021 3.000001 -5.000241 7.998824 -0.000165 -74.074303 -175.142989 3.287596 -179.999991 0.000005 -2.013002 78.879812 6.406376 3.921693 -0.000002 0.000000 2.696240 71.305946 6.992321 1.686123 27.263957 -7.275116 2.463031 -74.082581 168.812729 -0.921634 -0.000020 -0.000003 -1.788670 -102.306911 -5.953130 -3.845401 -0.000000 -0.000005 -3.322513 69.919574 -7.076524 -1.571049 27.915016 7.216758 -3.486795 
52.853600 3.575373 55.161102 -15.973301 -0.722617 -3.031366 5.145288 -0.404326 -0.575387 14.289757 -0.864321 -1.100092 15.934818 -0.877439 -1.089659 7.271314 16.009234 0.135854 11.789416 -11.260538 0.958065 -4.566301 -53.575013 -4.869123 -58.508063 -135.929890 -82.747865 0.000004 0.000003 0.000002 61.342209 -11.369566 3.112485 -0.000011 -0.000003 -2.999989 -5.000212 -7.999117 0.000116 -6.456940 61.257132 7.813428 -78.813239 109.757534 125.340050 -0.000001 -0.000003 0.000000 88.347145 5.258178 4.024806 -0.000006 -0.000023 3.000001 -5.000243 7.998823 -0.000164 -73.948553 -175.169531 3.290493 -179.999991 0.000004 -2.015994 78.902345 6.415613 3.924220 -0.000002 0.000000 2.695671 71.288781 6.993995 1.683877 27.256194 -7.275372 2.466322 -73.954058 168.781078 -0.932781 -0.000020 -0.000003 -1.790810 -102.288572 -5.957250 -3.844884 -0.000000 -0.000005 -3.322040 69.908823 -7.077100 -1.569236 27.913817 7.216955 -3.486241 
52.872601 3.590830 55.182602 -16.094569 -0.711347 -3.053851 5.146922 -0.400559 -0.572014 14.293032 -0.856499 -1.092121 15.938185 -0.869522 -1.081785 7.334521 15.942141 0.144870 11.828157 -11.227906 0.980086 -4.555825 -53.599735 -4.858928 -58.534305 -135.969245 -82.737510 0.000002 0.000003 -0.000000 61.173811 -11.423237 3.137813 -0.000011 -0.000005 -2.999990 -5.000212 -7.999121 0.000117 -6.448168 61.245418 7.802266 -78.788568 109.776972 125.254673 -0.000000 -0.000001 -0.000003 88.265647 5.301636 3.965102 -0.000005 -0.000024 3.000002 -5.000247 7.998824 -0.000165 -73.823922 -175.195131 3.292213 -179.999991 0.000005 -2.018999 78.924605 6.424920 3.926665 -0.000002 0.000000 2.695090 71.271590 6.995629 1.681726 27.248833 -7.275615 2.469462 -73.826531 168.749591 -0.943557 -0.000020 -0.000004 -1.792930 -102.270410 -5.961442 -3.843381 -0.000000 -0.000005 -3.321599 69.897868 -7.077700 -1.567344 27.912610 7.217139 -3.485767 
52.864700 3.604500 55.179794 -16.215141 -0.700488 -3.076176 5.148486 -0.396682 -0.568628 14.296301 -0.848419 -1.084108 15.941351 -0.861347 -1.073878 7.397150 15.874770 0.153215 11.867300 -11.194969 1.001111 -4.545734 -53.624840 -4.849236 -58.560717 -136.007549 -82.727675 0.000001 0.000004 -0.000002 61.005966 -11.476739 3.162857 -0.000012 -0.000004 -2.999989 -5.000214 -7.999119 0.000114 -6.439055 61.233295 7.790683 -78.760933 109.795708 125.164883 0.000002 -0.000002 0.000001 88.184183 5.344857 3.905763 -0.000007 -0.000023 3.000001 -5.000241 7.998822 -0.000166 -73.700173 -175.220280 3.294690 -179.999991 0.000004 -2.023003 78.946632 6.434164 3.929115 -0.000002 0.000000 2.694470 71.254323 6.997288 1.679585 27.241979 -7.275857 2.472409 -73.699572 168.718363 -0.954740 -0.000020 -0.000003 -1.795050 -102.252344 -5.965614 -3.840868 0.000001 -0.000004 -3.321179 69.887097 -7.078236 -1.565526 27.911411 7.217317 -3.485317 
52.866199 3.613831 55.185303 -16.335212 -0.690061 -3.098353 5.150039 -0.392737 -0.565223 14.299468 -0.840173 -1.076090 15.944515 -0.853005 -1.065959 7.458633 15.808423 0.160928 11.907591 -11.162973 1.021378 -4.536047 -53.649729 -4.840007 -58.585531 -136.045771 -82.715893 0.000002 0.000005 -0.000002 60.838735 -11.529863 3.187383 -0.000011 -0.000001 -2.999990 -5.000215 -7.999120 0.000111 -6.430117 61.221479 7.779309 -78.731201 109.814190 125.071719 -0.000000 -0.000003 0.000000 88.102658 5.387855 3.846687 -0.000005 -0.000020 3.000001 -5.000243 7.998824 -0.000168 -73.577291 -175.244636 3.297007 -179.999991 0.000005 -2.026007 78.968359 6.443441 3.931680 -0.000001 0.000001 2.693810 71.237029 6.998911 1.677541 27.235531 -7.276112 2.475102 -73.572981 168.687668 -0.966968 -0.000020 -0.000004 -1.797160 -102.234674 -5.969453 -3.840351 0.000001 -0.000005 -3.320769 69.876742 -7.078746 -1.563777 27.910207 7.217481 -3.484827 
52.856606 3.627361 55.208305 -16.454892 -0.680082 -3.120392 5.151617 -0.388766 -0.561788 14.302641 -0.831852 -1.068081 15.947677 -0.844588 -1.058043 7.518396 15.744124 0.168134 11.949588 -11.132866 1.041017 -4.526767 -53.673898 -4.831193 -58.609437 -136.083241 -82.703462 0.000003 0.000005 0.000000 60.672536 -11.582390 3.211303 -0.000013 -0.000003 -2.999990 -5.000215 -7.999119 0.000113 -6.421823 61.210441 7.768766 -78.699755 109.832502 124.975496 -0.000003 -0.000001 -0.000002 88.020996 5.430708 3.788067 -0.000005 -0.000024 3.000003 -5.000241 7.998823 -0.000166 -73.455051 -175.268105 3.299265 -179.999991 0.000005 -2.028999 78.989772 6.452731 3.934163 -0.000002 0.000000 2.693112 71.219653 7.000557 1.675505 27.229886 -7.276340 2.477508 -73.446725 168.657028 -0.979338 -0.000020 -0.000004 -1.799270 -102.217360 -5.973190 -3.838840 0.000000 -0.000005 -3.320381 69.866934 -7.079298 -1.562000 27.909007 7.217644 -3.484245 
52.858799 3.638962 55.207203 -16.574364 -0.670568 -3.142304 5.153256 -0.384810 -0.558316 14.306011 -0.823544 -1.060117 15.951043 -0.836186 -1.050181 7.575867 15.683279 0.174875 11.993858 -11.105910 1.060234 -4.517892 -53.696464 -4.822708 -58.631765 -136.120629 -82.689296 0.000002 0.000003 -0.000003 60.507505 -11.634004 3.234505 -0.000010 -0.000004 -2.999991 -5.000215 -7.999121 0.000114 -6.414680 61.200646 7.759655 -78.667380 109.851087 124.877182 0.000000 -0.000002 -0.000000 87.939116 5.473632 3.729332 -0.000005 -0.000021 3.000002 -5.000246 7.998824 -0.000164 -73.333364 -175.290303 3.300445 -179.999991 0.000004 -2.032004 79.010788 6.462037 3.936764 -0.000002 0.000000 2.692330 71.202338 7.002131 1.673553 27.224953 -7.276583 2.479585 -73.320339 168.626565 -0.992355 -0.000020 -0.000004 -1.801370 -102.200442 -5.976807 -3.837325 -0.000000 -0.000005 -3.320010 69.858082 -7.079836 -1.560262 27.907707 7.217802 -3.483494 
52.869701 3.667290 55.211803 -16.693643 -0.661541 -3.164117 5.155010 -0.380908 -0.554798 14.309580 -0.815341 -1.052205 15.954610 -0.827888 -1.042366 7.630470 15.626995 0.181222 12.041249 -11.083135 1.079252 -4.509443 -53.717095 -4.814545 -58.651435 -136.158223 -82.672145 0.000004 0.000002 -0.000000 60.343827 -11.684640 3.256946 -0.000011 -0.000002 -2.999989 -5.000215 -7.999118 0.000116 -6.409179 61.192580 7.752593 -78.634984 109.870006 124.777502 -0.000002 -0.000000 -0.000001 87.856942 5.516594 3.670864 -0.000007 -0.000020 2.999998 -5.000241 7.998823 -0.000165 -73.211964 -175.311736 3.302675 -179.999991 0.000005 -2.034996 79.031477 6.471372 3.939384 -0.000001 0.000000 2.691493 71.185126 7.003665 1.671490 27.220826 -7.276815 2.481251 -73.193830 168.596267 -1.005952 -0.000020 -0.000003 -1.803480 -102.183981 -5.980360 -3.834842 0.000000 -0.000005 -3.319640 69.850391 -7.080370 -1.558546 27.906302 7.217948 -3.482514 
52.864601 3.679231 55.223503 -16.813019 -0.653016 -3.185835 5.156920 -0.377105 -0.551226 14.313452 -0.807333 -1.044379 15.958474 -0.819787 -1.034632 7.681622 15.576487 0.187235 12.092324 -11.065699 1.098252 -4.501407 -53.735017 -4.806615 -58.667719 -136.196622 -82.650979 0.000003 0.000004 0.000000 60.181890 -11.733876 3.278483 -0.000011 -0.000004 -2.999989 -5.000214 -7.999121 0.000115 -6.405831 61.186918 7.748231 -78.602486 109.889554 124.676497 0.000001 -0.000002 -0.000000 87.774447 5.559624 3.612175 -0.000006 -0.000021 3.000001 -5.000244 7.998823 -0.000166 -73.090797 -175.331748 3.303970 -179.999991 0.000005 -2.038000 79.051851 6.480679 3.941916 -0.000003 0.000001 2.690570 71.167914 7.005190 1.669528 27.217710 -7.277030 2.482496 -73.066946 168.565981 -1.020045 -0.000020 -0.000005 -1.805590 -102.168087 -5.983664 -3.833357 0.000001 -0.000004 -3.319282 69.844087 -7.080898 -1.556944 27.904699 7.218100 -3.481235 
52.881500 3.686454 55.217999 -16.932606 -0.645010 -3.207475 5.159020 -0.373438 -0.547590 14.317625 -0.799610 -1.036658 15.962746 -0.811973 -1.027011 7.728769 15.532868 0.192976 12.147739 -11.054542 1.117397 -4.493826 -53.749620 -4.798893 -58.681270 -136.235172 -82.626868 0.000001 0.000003 0.000003 60.021660 -11.781619 3.298850 -0.000012 -0.000009 -2.999993 -5.000216 -7.999122 0.000113 -6.405141 61.184145 7.747193 -78.571218 109.910045 124.575492 0.000000 -0.000001 -0.000001 87.691460 5.602992 3.553486 -0.000005 -0.000023 3.000001 -5.000245 7.998822 -0.000164 -72.969520 -175.350846 3.306367 -179.999991 0.000006 -2.041005 79.071795 6.490018 3.944670 -0.000001 0.000000 2.689550 71.150798 7.006678 1.667551 27.215603 -7.277245 2.483250 -72.939413 168.535929 -1.035348 -0.000020 -0.000004 -1.807700 -102.152753 -5.986946 -3.831899 0.000001 -0.000005 -3.318921 69.839483 -7.081436 -1.555335 27.902989 7.218225 -3.479601 
